# Aspose.3D Wavefront OBJ Exporter
# Copyright 2004-2022 Aspose Pty Ltd.
# File created: 02/08/2022 02:36:11


#
# object Figura183
#

v 40 80 0
v 0 0 0
v 0 80 0
v 0 0 0
v 40 80 0
v 40 0 0
v 40 0 0
v 40 80 0
v 50.35276180410082956 78.63703305156272448 0
v 40 0 0
v 50.35276180410082956 78.63703305156272448 0
v 50.35276180410082956 1.36296694843727016 0
v 50.35276180410082956 1.36296694843727016 0
v 50.35276180410082956 78.63703305156272448 0
v 60 74.64101615137755632 0
v 50.35276180410082956 1.36296694843727016 0
v 60 74.64101615137755632 0
v 60 5.35898384862244992 0
v 60 5.35898384862244992 0
v 60 74.64101615137755632 0
v 68.28427124746190204 68.28427124746190204 0
v 60 5.35898384862244992 0
v 68.28427124746190204 68.28427124746190204 0
v 68.28427124746190204 11.71572875253810152 0
v 68.28427124746190204 11.71572875253810152 0
v 68.28427124746190204 68.28427124746190204 0
v 74.64101615137754208 60 0
v 68.28427124746190204 11.71572875253810152 0
v 74.64101615137754208 60 0
v 74.64101615137755632 20.0000000000000071 0
v 74.64101615137755632 20.0000000000000071 0
v 74.64101615137754208 60 0
v 78.63703305156272448 50.35276180410083668 0
v 74.64101615137755632 20.0000000000000071 0
v 78.63703305156272448 50.35276180410083668 0
v 78.63703305156273872 29.64723819589918464 0
v 78.63703305156273872 29.64723819589918464 0
v 78.63703305156272448 50.35276180410083668 0
v 80 40.00000000000001421 0
v 40 0 19.99999999999999648
v 0 0 0
v 40 0 0
v 0 0 0
v 40 0 19.99999999999999648
v 0 0 19.99999999999999648
v 0 39.99999999999998576 19.99999999999999648
v 0 0 0
v 0 0 19.99999999999999648
v 0 0 0
v 0 39.99999999999998576 19.99999999999999648
v 0 80 0
v 0 80 0
v 0 39.99999999999998576 19.99999999999999648
v 0 80 19.99999999999999648
v 0 80 19.99999999999999648
v 40 80 0
v 0 80 0
v 40 80 0
v 0 80 19.99999999999999648
v 40 80 19.99999999999999648
v 0 0 19.99999999999999648
v 1.36296694843727016 29.64723819589916328 19.99999999999999648
v 0 39.99999999999998576 19.99999999999999648
v 1.36296694843727016 29.64723819589916328 19.99999999999999648
v 0 0 19.99999999999999648
v 5.35898384862245612 19.99999999999999296 19.99999999999999648
v 5.35898384862245612 19.99999999999999296 19.99999999999999648
v 0 0 19.99999999999999648
v 11.71572875253810152 11.71572875253809624 19.99999999999999648
v 11.71572875253810152 11.71572875253809624 19.99999999999999648
v 0 0 19.99999999999999648
v 20.00000000000000355 5.35898384862244992 19.99999999999999648
v 20.00000000000000355 5.35898384862244992 19.99999999999999648
v 0 0 19.99999999999999648
v 29.647238195899174 1.36296694843727016 19.99999999999999648
v 29.647238195899174 1.36296694843727016 19.99999999999999648
v 0 0 19.99999999999999648
v 40 0 19.99999999999999648
v 40 0 60
v 29.647238195899174 1.36296694843727016 19.99999999999999648
v 40 0 19.99999999999999648
v 29.647238195899174 1.36296694843727016 19.99999999999999648
v 40 0 60
v 29.647238195899174 1.36296694843727016 60
v 29.647238195899174 1.36296694843727016 60
v 20.00000000000000355 5.35898384862244992 19.99999999999999648
v 29.647238195899174 1.36296694843727016 19.99999999999999648
v 20.00000000000000355 5.35898384862244992 19.99999999999999648
v 29.647238195899174 1.36296694843727016 60
v 20.00000000000000355 5.35898384862244992 60
v 20.00000000000000355 5.35898384862244992 60
v 11.71572875253810152 11.71572875253809624 19.99999999999999648
v 20.00000000000000355 5.35898384862244992 19.99999999999999648
v 11.71572875253810152 11.71572875253809624 19.99999999999999648
v 20.00000000000000355 5.35898384862244992 60
v 11.71572875253810152 11.71572875253809624 60
v 5.35898384862245612 19.99999999999999296 60
v 11.71572875253810152 11.71572875253809624 19.99999999999999648
v 11.71572875253810152 11.71572875253809624 60
v 11.71572875253810152 11.71572875253809624 19.99999999999999648
v 5.35898384862245612 19.99999999999999296 60
v 5.35898384862245612 19.99999999999999296 19.99999999999999648
v 1.36296694843727016 29.64723819589916328 60
v 5.35898384862245612 19.99999999999999296 19.99999999999999648
v 5.35898384862245612 19.99999999999999296 60
v 5.35898384862245612 19.99999999999999296 19.99999999999999648
v 1.36296694843727016 29.64723819589916328 60
v 1.36296694843727016 29.64723819589916328 19.99999999999999648
v 0 39.99999999999998576 60
v 1.36296694843727016 29.64723819589916328 19.99999999999999648
v 1.36296694843727016 29.64723819589916328 60
v 1.36296694843727016 29.64723819589916328 19.99999999999999648
v 0 39.99999999999998576 60
v 0 39.99999999999998576 19.99999999999999648
v 0 39.99999999999998576 19.99999999999999648
v 0 39.99999999999998576 60
v 0 39.99999999999998576 40
v 1.3629669484372644 50.35276180410081536 19.99999999999999648
v 0 80 19.99999999999999648
v 0 39.99999999999998576 19.99999999999999648
v 0 80 19.99999999999999648
v 1.3629669484372644 50.35276180410081536 19.99999999999999648
v 5.35898384862244992 59.99999999999999296 19.99999999999999648
v 0 80 19.99999999999999648
v 5.35898384862244992 59.99999999999999296 19.99999999999999648
v 11.71572875253809624 68.28427124746190204 19.99999999999999648
v 0 80 19.99999999999999648
v 11.71572875253809624 68.28427124746190204 19.99999999999999648
v 20.00000000000000355 74.64101615137755632 19.99999999999999648
v 0 80 19.99999999999999648
v 20.00000000000000355 74.64101615137755632 19.99999999999999648
v 29.647238195899174 78.63703305156272448 19.99999999999999648
v 0 80 19.99999999999999648
v 29.647238195899174 78.63703305156272448 19.99999999999999648
v 40 80 19.99999999999999648
v 1.3629669484372644 50.35276180410081536 40
v 0 39.99999999999998576 19.99999999999999648
v 0 39.99999999999998576 40
v 0 39.99999999999998576 19.99999999999999648
v 1.3629669484372644 50.35276180410081536 40
v 1.3629669484372644 50.35276180410081536 19.99999999999999648
v 5.35898384862244992 59.99999999999999296 40
v 1.3629669484372644 50.35276180410081536 19.99999999999999648
v 1.3629669484372644 50.35276180410081536 40
v 1.3629669484372644 50.35276180410081536 19.99999999999999648
v 5.35898384862244992 59.99999999999999296 40
v 5.35898384862244992 59.99999999999999296 19.99999999999999648
v 11.71572875253809624 68.28427124746190204 40
v 5.35898384862244992 59.99999999999999296 19.99999999999999648
v 5.35898384862244992 59.99999999999999296 40
v 5.35898384862244992 59.99999999999999296 19.99999999999999648
v 11.71572875253809624 68.28427124746190204 40
v 11.71572875253809624 68.28427124746190204 19.99999999999999648
v 11.71572875253809624 68.28427124746190204 40
v 20.00000000000000355 74.64101615137755632 19.99999999999999648
v 11.71572875253809624 68.28427124746190204 19.99999999999999648
v 20.00000000000000355 74.64101615137755632 19.99999999999999648
v 11.71572875253809624 68.28427124746190204 40
v 20.00000000000000355 74.64101615137755632 40
v 20.00000000000000355 74.64101615137755632 40
v 29.647238195899174 78.63703305156272448 19.99999999999999648
v 20.00000000000000355 74.64101615137755632 19.99999999999999648
v 29.647238195899174 78.63703305156272448 19.99999999999999648
v 20.00000000000000355 74.64101615137755632 40
v 29.647238195899174 78.63703305156272448 40
v 29.647238195899174 78.63703305156272448 40
v 40 80 19.99999999999999648
v 29.647238195899174 78.63703305156272448 19.99999999999999648
v 40 80 19.99999999999999648
v 29.647238195899174 78.63703305156272448 40
v 40 80 40
v 40 40 40
v 1.3629669484372644 50.35276180410081536 40
v 0 39.99999999999998576 40
v 1.3629669484372644 50.35276180410081536 40
v 40 40 40
v 5.35898384862244992 59.99999999999999296 40
v 5.35898384862244992 59.99999999999999296 40
v 40 40 40
v 11.71572875253809624 68.28427124746190204 40
v 11.71572875253809624 68.28427124746190204 40
v 40 40 40
v 20.00000000000000355 74.64101615137755632 40
v 20.00000000000000355 74.64101615137755632 40
v 40 40 40
v 29.647238195899174 78.63703305156272448 40
v 29.647238195899174 78.63703305156272448 40
v 40 40 40
v 40 80 40
v 0 39.99999999999998576 60
v 40 40 40
v 0 39.99999999999998576 40
v 40 40 40
v 0 39.99999999999998576 60
v 40 40 60
v 40 80 80
v 40 40 60
v 40 40 80
v 40 40 60
v 40 80 80
v 40 40 40
v 40 40 40
v 40 80 80
v 40 80 40
v 1.36296694843727016 29.64723819589916328 60
v 40 40 60
v 0 39.99999999999998576 60
v 40 40 60
v 1.36296694843727016 29.64723819589916328 60
v 5.35898384862245612 19.99999999999999296 60
v 40 40 60
v 5.35898384862245612 19.99999999999999296 60
v 11.71572875253810152 11.71572875253809624 60
v 40 40 60
v 11.71572875253810152 11.71572875253809624 60
v 20.00000000000000355 5.35898384862244992 60
v 40 40 60
v 20.00000000000000355 5.35898384862244992 60
v 29.647238195899174 1.36296694843727016 60
v 40 40 60
v 29.647238195899174 1.36296694843727016 60
v 40 0 60
v 40 40 80
v 40 0 60
v 40 0 80
v 40 0 60
v 40 40 80
v 40 40 60
v 50.35276180410082956 1.36296694843727016 80
v 40 40 80
v 40 0 80
v 40 40 80
v 50.35276180410082956 1.36296694843727016 80
v 40 80 80
v 40 80 80
v 50.35276180410082956 1.36296694843727016 80
v 50.35276180410082956 78.63703305156272448 80
v 50.35276180410082956 78.63703305156272448 80
v 50.35276180410082956 1.36296694843727016 80
v 60 5.35898384862244992 80
v 50.35276180410082956 78.63703305156272448 80
v 60 5.35898384862244992 80
v 60 74.64101615137755632 80
v 60 74.64101615137755632 80
v 60 5.35898384862244992 80
v 68.28427124746190204 11.71572875253810152 80
v 60 74.64101615137755632 80
v 68.28427124746190204 11.71572875253810152 80
v 68.28427124746190204 68.28427124746190204 80
v 68.28427124746190204 68.28427124746190204 80
v 68.28427124746190204 11.71572875253810152 80
v 74.64101615137755632 20.0000000000000071 80
v 68.28427124746190204 68.28427124746190204 80
v 74.64101615137755632 20.0000000000000071 80
v 74.64101615137754208 60 80
v 74.64101615137754208 60 80
v 74.64101615137755632 20.0000000000000071 80
v 78.63703305156272448 50.35276180410083668 80
v 78.63703305156272448 50.35276180410083668 80
v 74.64101615137755632 20.0000000000000071 80
v 78.63703305156273872 29.64723819589918464 80
v 78.63703305156272448 50.35276180410083668 80
v 78.63703305156273872 29.64723819589918464 80
v 80 40.00000000000001421 80
v 80 40.00000000000001421 0
v 78.63703305156273872 29.64723819589918464 80
v 78.63703305156273872 29.64723819589918464 0
v 78.63703305156273872 29.64723819589918464 80
v 80 40.00000000000001421 0
v 80 40.00000000000001421 80
v 78.63703305156273872 29.64723819589918464 0
v 74.64101615137755632 20.0000000000000071 80
v 74.64101615137755632 20.0000000000000071 0
v 74.64101615137755632 20.0000000000000071 80
v 78.63703305156273872 29.64723819589918464 0
v 78.63703305156273872 29.64723819589918464 80
v 74.64101615137755632 20.0000000000000071 0
v 68.28427124746190204 11.71572875253810152 80
v 68.28427124746190204 11.71572875253810152 0
v 68.28427124746190204 11.71572875253810152 80
v 74.64101615137755632 20.0000000000000071 0
v 74.64101615137755632 20.0000000000000071 80
v 68.28427124746190204 11.71572875253810152 80
v 60 5.35898384862244992 0
v 68.28427124746190204 11.71572875253810152 0
v 60 5.35898384862244992 0
v 68.28427124746190204 11.71572875253810152 80
v 60 5.35898384862244992 80
v 60 5.35898384862244992 80
v 50.35276180410082956 1.36296694843727016 0
v 60 5.35898384862244992 0
v 50.35276180410082956 1.36296694843727016 0
v 60 5.35898384862244992 80
v 50.35276180410082956 1.36296694843727016 80
v 50.35276180410082956 1.36296694843727016 80
v 40 0 0
v 50.35276180410082956 1.36296694843727016 0
v 40 0 0
v 50.35276180410082956 1.36296694843727016 80
v 40 0 19.99999999999999648
v 40 0 19.99999999999999648
v 50.35276180410082956 1.36296694843727016 80
v 40 0 60
v 40 0 60
v 50.35276180410082956 1.36296694843727016 80
v 40 0 80
v 40 80 19.99999999999999648
v 50.35276180410082956 78.63703305156272448 0
v 40 80 0
v 50.35276180410082956 78.63703305156272448 0
v 40 80 19.99999999999999648
v 50.35276180410082956 78.63703305156272448 80
v 50.35276180410082956 78.63703305156272448 80
v 40 80 19.99999999999999648
v 40 80 40
v 50.35276180410082956 78.63703305156272448 80
v 40 80 40
v 40 80 80
v 50.35276180410082956 78.63703305156272448 80
v 60 74.64101615137755632 0
v 50.35276180410082956 78.63703305156272448 0
v 60 74.64101615137755632 0
v 50.35276180410082956 78.63703305156272448 80
v 60 74.64101615137755632 80
v 60 74.64101615137755632 80
v 68.28427124746190204 68.28427124746190204 0
v 60 74.64101615137755632 0
v 68.28427124746190204 68.28427124746190204 0
v 60 74.64101615137755632 80
v 68.28427124746190204 68.28427124746190204 80
v 68.28427124746190204 68.28427124746190204 0
v 74.64101615137754208 60 80
v 74.64101615137754208 60 0
v 74.64101615137754208 60 80
v 68.28427124746190204 68.28427124746190204 0
v 68.28427124746190204 68.28427124746190204 80
v 74.64101615137754208 60 0
v 78.63703305156272448 50.35276180410083668 80
v 78.63703305156272448 50.35276180410083668 0
v 78.63703305156272448 50.35276180410083668 80
v 74.64101615137754208 60 0
v 74.64101615137754208 60 80
v 78.63703305156272448 50.35276180410083668 0
v 80 40.00000000000001421 80
v 80 40.00000000000001421 0
v 80 40.00000000000001421 80
v 78.63703305156272448 50.35276180410083668 0
v 78.63703305156272448 50.35276180410083668 80
# 348 vertices

vn 0 0 -1
vn 0 0 -1
vn 0 0 -1
vn 0 0 -1
vn 0 0 -1
vn 0 0 -1
vn 0 0 -1
vn 0 0 -1
vn 0 0 -1
vn 0 0 -1
vn 0 0 -1
vn 0 0 -1
vn 0 0 -1
vn 0 -1 0
vn 0 -1 0
vn -1 0 0
vn -1 0 0
vn -1 0 0
vn 0 1 0
vn 0 1 0
vn 0 0 1
vn 0 0 1
vn 0 0 1
vn 0 0 1
vn 0 0 1
vn 0 0 1
vn -0.1305261922200518 -0.9914448613738104 0
vn -0.1305261922200518 -0.9914448613738104 0
vn -0.38268343236508928 -0.92387953251128704 0
vn -0.38268343236508928 -0.92387953251128704 0
vn -0.6087614290087208 -0.7933533402912352 0
vn -0.6087614290087208 -0.7933533402912352 0
vn -0.7933533402912352 -0.60876142900872088 0
vn -0.7933533402912352 -0.60876142900872088 0
vn -0.92387953251128672 -0.38268343236508984 0
vn -0.92387953251128672 -0.38268343236508984 0
vn -0.99144486137381056 -0.13052619222005176 0
vn -0.99144486137381056 -0.13052619222005176 0
vn -0.99144486137381056 -0.13052619222005176 0
vn 0 0 1
vn 0 0 1
vn 0 0 1
vn 0 0 1
vn 0 0 1
vn 0 0 1
vn -0.99144486137381056 0.13052619222005124 0
vn -0.99144486137381056 0.13052619222005124 0
vn -0.92387953251128688 0.38268343236508952 0
vn -0.92387953251128688 0.38268343236508952 0
vn -0.7933533402912352 0.6087614290087204 0
vn -0.7933533402912352 0.6087614290087204 0
vn -0.6087614290087208 0.79335334029123504 0
vn -0.6087614290087208 0.79335334029123504 0
vn -0.38268343236508928 0.92387953251128704 0
vn -0.38268343236508928 0.92387953251128704 0
vn -0.1305261922200518 0.9914448613738104 0
vn -0.1305261922200518 0.9914448613738104 0
vn 0 0 1
vn 0 0 1
vn 0 0 1
vn 0 0 1
vn 0 0 1
vn 0 0 1
vn -2.8199664825478977E-16 1 0
vn -2.8199664825478977E-16 1 0
vn -1 0 0
vn -1 0 0
vn -1 0 0
vn 0 0 1
vn 0 0 1
vn 0 0 1
vn 0 0 1
vn 0 0 1
vn 0 0 1
vn -1 0 0
vn -1 0 0
vn 0 0 1
vn 0 0 1
vn 0 0 1
vn 0 0 1
vn 0 0 1
vn 0 0 1
vn 0 0 1
vn 0 0 1
vn 0 0 1
vn 0 0 1
vn 0 0 1
vn 0 0 1
vn 0.99144486137381056 -0.13052619222005072 0
vn 0.99144486137381056 -0.13052619222005072 0
vn 0.92387953251128688 -0.38268343236509008 0
vn 0.92387953251128688 -0.38268343236509008 0
vn 0.79335334029123504 -0.6087614290087208 0
vn 0.79335334029123504 -0.6087614290087208 0
vn 0.60876142900872136 -0.79335334029123472 0
vn 0.60876142900872136 -0.79335334029123472 0
vn 0.3826834323650892 -0.9238795325112872 0
vn 0.3826834323650892 -0.9238795325112872 0
vn 0.1305261922200518 -0.99144486137381056 9.125206823522007E-35
vn 0.1305261922200518 -0.99144486137381056 9.125206823522007E-35
vn 0.1305261922200518 -0.99144486137381056 9.125206823522007E-35
vn 0.1305261922200518 -0.99144486137381056 9.125206823522007E-35
vn 0.13052619222005182 0.99144486137381056 1.8691653174633346E-19
vn 0.13052619222005182 0.99144486137381056 1.8691653174633346E-19
vn 0.13052619222005182 0.99144486137381056 1.8691653174633346E-19
vn 0.13052619222005182 0.99144486137381056 1.8691653174633346E-19
vn 0.3826834323650892 0.9238795325112872 0
vn 0.3826834323650892 0.9238795325112872 0
vn 0.60876142900872136 0.79335334029123472 0
vn 0.60876142900872136 0.79335334029123472 0
vn 0.79335334029123536 0.60876142900872064 0
vn 0.79335334029123536 0.60876142900872064 0
vn 0.92387953251128656 0.38268343236509048 0
vn 0.92387953251128656 0.38268343236509048 0
vn 0.99144486137381056 0.13052619222005176 0
vn 0.99144486137381056 0.13052619222005176 0
# 116 vertex normals

g Figura183
s 1
f 1//1 2//1 3//1
f 4//2 5//2 6//2
f 7//3 8//3 9//3
f 10//4 11//4 12//4
f 13//5 14//5 15//5
f 16//6 17//6 18//6
f 19//7 20//7 21//7
f 22//8 23//8 24//8
f 25//9 26//9 27//9
f 28//10 29//10 30//10
f 31//11 32//11 33//11
f 34//12 35//12 36//12
f 37//13 38//13 39//13
f 40//14 41//14 42//14
f 43//15 44//15 45//15
f 46//16 47//16 48//16
f 49//17 50//17 51//17
f 52//18 53//18 54//18
f 55//19 56//19 57//19
f 58//20 59//20 60//20
f 61//21 62//21 63//21
f 64//22 65//22 66//22
f 67//23 68//23 69//23
f 70//24 71//24 72//24
f 73//25 74//25 75//25
f 76//26 77//26 78//26
f 79//27 80//27 81//27
f 82//28 83//28 84//28
f 85//29 86//29 87//29
f 88//30 89//30 90//30
f 91//31 92//31 93//31
f 94//32 95//32 96//32
f 97//33 98//33 99//33
f 100//34 101//34 102//34
f 103//35 104//35 105//35
f 106//36 107//36 108//36
f 109//37 110//37 111//37
f 112//38 113//38 114//38
f 115//39 116//39 117//39
f 118//40 119//40 120//40
f 121//41 122//41 123//41
f 124//42 125//42 126//42
f 127//43 128//43 129//43
f 130//44 131//44 132//44
f 133//45 134//45 135//45
f 136//46 137//46 138//46
f 139//47 140//47 141//47
f 142//48 143//48 144//48
f 145//49 146//49 147//49
f 148//50 149//50 150//50
f 151//51 152//51 153//51
f 154//52 155//52 156//52
f 157//53 158//53 159//53
f 160//54 161//54 162//54
f 163//55 164//55 165//55
f 166//56 167//56 168//56
f 169//57 170//57 171//57
f 172//58 173//58 174//58
f 175//59 176//59 177//59
f 178//60 179//60 180//60
f 181//61 182//61 183//61
f 184//62 185//62 186//62
f 187//63 188//63 189//63
f 190//64 191//64 192//64
f 193//65 194//65 195//65
f 196//66 197//66 198//66
f 199//67 200//67 201//67
f 202//68 203//68 204//68
f 205//69 206//69 207//69
f 208//70 209//70 210//70
f 211//71 212//71 213//71
f 214//72 215//72 216//72
f 217//73 218//73 219//73
f 220//74 221//74 222//74
f 223//75 224//75 225//75
f 226//76 227//76 228//76
f 229//77 230//77 231//77
f 232//78 233//78 234//78
f 235//79 236//79 237//79
f 238//80 239//80 240//80
f 241//81 242//81 243//81
f 244//82 245//82 246//82
f 247//83 248//83 249//83
f 250//84 251//84 252//84
f 253//85 254//85 255//85
f 256//86 257//86 258//86
f 259//87 260//87 261//87
f 262//88 263//88 264//88
f 265//89 266//89 267//89
f 268//90 269//90 270//90
f 271//91 272//91 273//91
f 274//92 275//92 276//92
f 277//93 278//93 279//93
f 280//94 281//94 282//94
f 283//95 284//95 285//95
f 286//96 287//96 288//96
f 289//97 290//97 291//97
f 292//98 293//98 294//98
f 295//99 296//99 297//99
f 298//100 299//100 300//100
f 301//101 302//101 303//101
f 304//102 305//102 306//102
f 307//103 308//103 309//103
f 310//104 311//104 312//104
f 313//105 314//105 315//105
f 316//106 317//106 318//106
f 319//107 320//107 321//107
f 322//108 323//108 324//108
f 325//109 326//109 327//109
f 328//110 329//110 330//110
f 331//111 332//111 333//111
f 334//112 335//112 336//112
f 337//113 338//113 339//113
f 340//114 341//114 342//114
f 343//115 344//115 345//115
f 346//116 347//116 348//116
#116 polygons

